<svg xmlns="http://www.w3.org/2000/svg" xmlns:xlink="http://www.w3.org/1999/xlink" aria-hidden="true" role="img" class="iconify iconify--logos" width="35.93" height="32" preserveAspectRatio="xMidYMid meet" viewBox="0 0 256 228"><path fill="#00D8FF" d="M210.483 73.824a171.49 171.49 0 0 0-8.24-2.597c.465-1.9.893-3.777 1.273-5.621c6.238-30.281 2.16-54.676-11.769-62.708c-13.355-7.7-35.196.329-57.254 19.526a171.23 171.23 0 0 0-6.375 5.848a155.866 155.866 0 0 0-4.241-3.917C100.759 3.829 77.587-4.822 63.673 3.233C50.33 10.957 46.379 33.89 51.995 62.588a170.974 170.974 0 0 0 1.892 8.48c-3.28.932-6.445 1.924-9.474 2.98C17.309 83.498 0 98.307 0 113.668c0 15.865 18.582 31.778 46.812 41.427a145.52 145.52 0 0 0 6.921 2.165a167.467 167.467 0 0 0-2.01 9.138c-5.354 28.2-1.173 50.591 12.134 58.266c13.744 7.926 36.812-.22 59.273-19.855a145.567 145.567 0 0 0 5.342-4.923a168.064 168.064 0 0 0 6.92 6.314c21.758 18.722 43.246 26.282 56.54 18.586c13.731-7.949 18.194-32.003 12.4-61.268a145.016 145.016 0 0 0-1.535-6.842c1.62-.48 3.21-.974 4.76-1.488c29.348-9.723 48.443-25.443 48.443-41.52c0-15.417-17.868-30.326-45.517-39.844Zm-6.365 70.984c-1.4.463-2.836.91-4.3 1.345c-3.24-10.257-7.612-21.163-12.963-32.432c5.106-11 9.31-21.767 12.459-31.957c2.619.758 5.16 1.557 7.61 2.4c23.69 8.156 38.14 20.213 38.14 29.504c0 9.896-15.606 22.743-40.946 31.14Zm-10.514 20.834c2.562 12.94 2.927 24.64 1.23 33.787c-1.524 8.219-4.59 13.698-8.882 15.496c-8.367 4.33-25.2-1.84-43.935-17.412a156.726 156.726 0 0 1-6.437-5.87c7.214-7.889 14.423-17.06 21.459-27.246c12.376-1.098 24.068-2.894 34.671-5.345a134.624 134.624 0 0 1 1.386 6.193ZM87.276 214.515c-7.882 2.783-14.16 2.863-17.789.118c-8.495-5.826-6.073-30.238 5.52-63.584a156.254 156.254 0 0 1 2.66-7.206c9.657 2.118 19.79 3.646 30.127 4.565c7.058 10.175 14.29 19.32 21.459 27.246a156.81 156.81 0 0 1-4.91 5.754c-8.818 9.483-17.826 16.564-25.065 21.107Zm-22.404-63.673c-11.977 20.575-16.29 39.93-12.475 51.156c3.575 10.156 13.377 13.39 26.245 5.458a187.015 187.015 0 0 0 7.227-5.068a155.868 155.868 0 0 0-4.021-10.239a175.216 175.216 0 0 0-5.976-11.307Zm-9.511-12.938a178.656 178.656 0 0 1 6.437-19.539c7.43-1.352 15.27-2.303 23.303-2.832a178.706 178.706 0 0 1 8.728 15.27c-4.017 8.171-8.285 16.05-12.631 23.248a170.31 170.31 0 0 1-15.537-16.147Zm30.224 34.527a170.974 170.974 0 0 1-7.424-1.229c3.051-6.085 6.017-12.35 8.816-18.68c2.81 6.35 5.74 12.63 8.608 18.909ZM128.5 152.13a323.067 323.067 0 0 0-7.227 0c2.12-6.204 4.043-12.469 5.731-18.744c1.693 6.291 3.616 12.557 5.496 18.744ZM107.624 27.191c8.051 0 17.305 3.569 26.876 10.363c3.941 2.806 7.92 6.102 11.866 9.818a323.84 323.84 0 0 0-7.227 5.068c-4.116-8.017-8.39-15.6-12.631-22.422c-12.67 1.352-24.874 3.646-36.206 6.759c3.575-10.156 7.99-19.32 13.322-26.786c-1.98-.015-3.978-.025-5.978-.025Zm-26.4 63.811c.8-1.384 1.602-2.766 2.407-4.153c4.567.675 9.148 1.51 13.721 2.5c-2.914 6.482-5.734 13.08-8.414 19.77c-5.106-11-9.31-21.767-12.459-31.957c2.097.67 4.18 1.35 6.25 2.04Zm-24.12-10.701c25.087-8.154 48.135-1.038 63.856 16.333a141.525 141.525 0 0 0-6.923 6.657a167.467 167.467 0 0 0-2.01-9.138c-5.354-28.2-1.173-50.591 12.134-58.266c2.772-1.6 5.966-2.399 9.536-2.399c5.433 0 11.715 2.43 18.397 7.07c-7.24 4.612-16.564 11.969-25.065 21.12a155.866 155.866 0 0 0-4.241-3.917C100.759 3.829 77.587-4.822 63.673 3.233C50.33 10.957 46.379 33.89 51.995 62.588a170.974 170.974 0 0 0 1.892 8.48c-3.28.932-6.445 1.924-9.474 2.98C17.309 83.498 0 98.307 0 113.668c0 15.417 17.868 30.326 45.517 39.844c-1.294-4.031-2.359-8.015-3.186-11.941c-5.99-2.399-11.564-5.602-16.599-9.544c-6.215-5.209-10.492-11.038-12.359-17.371c-5.43-18.395 12.72-39.655 35.43-50.162Zm35.542 124.101c8.051 0 17.305-3.569 26.876-10.363a141.525 141.525 0 0 0 6.923-6.657a167.467 167.467 0 0 0 2.01 9.138c5.354 28.2 1.173 50.591-12.134 58.266c-13.744 7.926-36.812-.22-59.273-19.855a145.567 145.567 0 0 1-5.342-4.923a168.064 168.064 0 0 1-6.92-6.314c21.759-18.722 43.247-26.282 56.54-18.586c13.731 7.949 18.194 32.003 12.4 61.268a145.016 145.016 0 0 1-1.535 6.842c-1.62.48-3.21.974-4.76 1.488c-29.348 9.723-48.443 25.443-48.443 41.52c0 15.865-18.582 31.778-46.812 41.427a145.52 145.52 0 0 1-6.921 2.165a167.467 167.467 0 0 1 2.01 9.138c5.354 28.2 1.173 50.591-12.134 58.266c-2.772 1.6-5.966 2.399-9.536 2.399c-5.433 0-11.715-2.43-18.397-7.07c7.24-4.612 16.564-11.969 25.065-21.12a155.866 155.866 0 0 1 4.241 3.917c10.288 13.039 23.614 23.198 37.941 29.427c13.731 7.949 36.812-.22 59.273-19.855a145.567 145.567 0 0 0 5.342-4.923a168.064 168.064 0 0 0 6.92-6.314c-21.759-18.722-43.247-26.282-56.54-18.586c-13.731 7.949-18.194 32.003-12.4 61.268a145.016 145.016 0 0 0 1.535 6.842c1.62-.48 3.21-.974 4.76-1.488c29.348-9.723 48.443-25.443 48.443-41.52c0-15.417-17.868-30.326-45.517-39.844Zm22.404-63.811a178.656 178.656 0 0 0-6.437-19.539c-7.43-1.352-15.27-2.303-23.303-2.832a178.706 178.706 0 0 0-8.728-15.27c4.017-8.171 8.285-16.05 12.631-23.248a170.31 170.31 0 0 0 15.537 16.147Zm-30.224-34.527c2.48.413 4.981.813 7.424 1.229c-3.051 6.085-6.017 12.35-8.816 18.68c-2.81-6.35-5.74-12.63-8.608-18.909ZM128.5 152.13c2.409 0 4.817.01 7.227 0c-2.12 6.204-4.043 12.469-5.731 18.744c-1.693-6.291-3.616-12.557-5.496-18.744Z"></path></svg>
